<svg width="24" height="24" viewBox="0 0 24 24" fill="none" xmlns="http://www.w3.org/2000/svg">
<path d="M9.32998 14.9663L9.86193 15.495L9.32998 14.9663C9.06481 15.2331 8.91667 15.594 8.91667 15.9693V19.6585C8.91667 19.8168 8.8541 19.9678 8.74419 20.0784C8.63444 20.1888 8.48656 20.25 8.33333 20.25H5.00075C4.67062 20.2497 4.35317 20.1176 4.11832 19.8813C3.8834 19.645 3.75042 19.3235 3.75 18.9873V8.97153C3.75033 8.86814 3.7771 8.76681 3.82743 8.67732C3.87772 8.5879 3.94971 8.51353 4.03605 8.46094C4.03626 8.46082 4.03646 8.46069 4.03667 8.46056L11.7016 3.83335L11.7017 3.8333C11.7922 3.77866 11.8953 3.75 12.0002 3.75C12.105 3.75 12.2081 3.77866 12.2986 3.8333L12.2987 3.83335L19.9635 8.46045C19.9637 8.46058 19.9639 8.46071 19.9641 8.46084C20.0504 8.51344 20.1224 8.58782 20.1726 8.67723C20.2229 8.7667 20.2497 8.86799 20.25 8.97133C20.25 8.97158 20.25 8.97182 20.25 8.97206L20.25 18.987C20.2497 19.3233 20.1167 19.6449 19.8817 19.8813C19.6468 20.1176 19.3294 20.2497 18.9992 20.25H15.6667C15.5134 20.25 15.3656 20.1888 15.2558 20.0784C15.1459 19.9678 15.0833 19.8168 15.0833 19.6585V15.9693C15.0833 15.594 14.9352 15.2331 14.67 14.9663L14.1381 15.495L14.67 14.9663C14.4047 14.6993 14.0439 14.5485 13.6667 14.5485H10.3333C9.95612 14.5485 9.5953 14.6993 9.32998 14.9663Z" stroke="white" stroke-width="1.5"/>
</svg>
